# xmcd
#
# Track frame offsets:
#	150
#	15333
#	30595
#	86715
#	120978
#	138438
#	165938
#	185076
#	263858
#
# Disc length: 3971 seconds
#
# Revision: 1
# Processed by: cddbd v1.5.2PL0 Copyright (c) Steve Scherf et al.
# Submitted via: EZCDAudioConverter 7.1.5.1
#
DISCID=680f8109
DTITLE=Ryan McGarvey - Live At Swinghouse
DYEAR=2018
DGENRE=Blues Rock
TTITLE0=Wish I Was Your Man
TTITLE1=Texas Special
TTITLE2=Prove Myself
TTITLE3=Blues Knockin' At My Door
TTITLE4=Little Red Riding Hood
TTITLE5=My Heart To You
TTITLE6=Memphis
TTITLE7=Mystic Dream
TTITLE8=Joyride
EXTD=
EXTT0=
EXTT1=
EXTT2=
EXTT3=
EXTT4=
EXTT5=
EXTT6=
EXTT7=
EXTT8=
PLAYORDER=
